<svg xmlns="http://www.w3.org/2000/svg" xmlns:xlink="http://www.w3.org/1999/xlink" width="500" zoomAndPan="magnify" viewBox="0 0 375 374.999991" height="500" preserveAspectRatio="xMidYMid meet" version="1.0"><defs><g/><clipPath id="4dbf5768f8"><path d="M 63.808594 252.085938 L 130.601562 252.085938 L 130.601562 366.238281 L 63.808594 366.238281 Z M 63.808594 252.085938 " clip-rule="nonzero"/></clipPath><clipPath id="850395ae59"><path d="M 63.808594 20.101562 L 130.601562 20.101562 L 130.601562 86.894531 L 63.808594 86.894531 Z M 63.808594 20.101562 " clip-rule="nonzero"/></clipPath><clipPath id="b2a8779ad7"><path d="M 97.203125 20.101562 C 78.761719 20.101562 63.808594 35.054688 63.808594 53.496094 C 63.808594 71.941406 78.761719 86.894531 97.203125 86.894531 C 115.648438 86.894531 130.601562 71.941406 130.601562 53.496094 C 130.601562 35.054688 115.648438 20.101562 97.203125 20.101562 Z M 97.203125 20.101562 " clip-rule="nonzero"/></clipPath><clipPath id="6b7dd93982"><path d="M 236.636719 225.582031 L 303.429688 225.582031 L 303.429688 295.160156 L 236.636719 295.160156 Z M 236.636719 225.582031 " clip-rule="nonzero"/></clipPath><clipPath id="9e21702761"><path d="M 180.378906 75.632812 L 292.894531 75.632812 L 292.894531 134.636719 L 180.378906 134.636719 Z M 180.378906 75.632812 " clip-rule="nonzero"/></clipPath><clipPath id="951494769c"><path d="M 188.410156 99.429688 L 217.445312 99.429688 L 217.445312 128.464844 L 188.410156 128.464844 Z M 188.410156 99.429688 " clip-rule="nonzero"/></clipPath><clipPath id="1acba5fe61"><path d="M 202.925781 99.429688 C 194.910156 99.429688 188.410156 105.929688 188.410156 113.949219 C 188.410156 121.964844 194.910156 128.464844 202.925781 128.464844 C 210.945312 128.464844 217.445312 121.964844 217.445312 113.949219 C 217.445312 105.929688 210.945312 99.429688 202.925781 99.429688 Z M 202.925781 99.429688 " clip-rule="nonzero"/></clipPath><clipPath id="4dde9d0231"><path d="M 255.226562 99.429688 L 284.261719 99.429688 L 284.261719 128.464844 L 255.226562 128.464844 Z M 255.226562 99.429688 " clip-rule="nonzero"/></clipPath><clipPath id="30a4639e93"><path d="M 269.746094 99.429688 C 261.726562 99.429688 255.226562 105.929688 255.226562 113.949219 C 255.226562 121.964844 261.726562 128.464844 269.746094 128.464844 C 277.761719 128.464844 284.261719 121.964844 284.261719 113.949219 C 284.261719 105.929688 277.761719 99.429688 269.746094 99.429688 Z M 269.746094 99.429688 " clip-rule="nonzero"/></clipPath></defs><g clip-path="url(#4dbf5768f8)"><path fill="#fbeb78" d="M 63.808594 252.085938 L 130.601562 252.085938 L 130.601562 366.359375 L 63.808594 366.359375 Z M 63.808594 252.085938 " fill-opacity="1" fill-rule="nonzero"/></g><g clip-path="url(#850395ae59)"><g clip-path="url(#b2a8779ad7)"><path fill="#df3821" d="M 63.808594 20.101562 L 130.601562 20.101562 L 130.601562 86.894531 L 63.808594 86.894531 Z M 63.808594 20.101562 " fill-opacity="1" fill-rule="nonzero"/></g></g><g clip-path="url(#6b7dd93982)"><path fill="#b9e185" d="M 236.636719 225.582031 L 303.429688 225.582031 L 303.429688 295.246094 L 236.636719 295.246094 Z M 236.636719 225.582031 " fill-opacity="1" fill-rule="nonzero"/></g><g fill="#000000" fill-opacity="1"><g transform="translate(77.103479, 185.425059)"><g><path d="M 13.953125 0 L 13.953125 -135.65625 L 38.25 -135.65625 L 38.25 -84.140625 L 40.09375 -83.796875 C 43.3125 -88.535156 47.257812 -92.191406 51.9375 -94.765625 C 56.625 -97.335938 62.269531 -98.625 68.875 -98.625 C 90.226562 -98.625 100.90625 -86.515625 100.90625 -62.296875 L 100.90625 0 L 76.609375 0 L 76.609375 -59.234375 C 76.609375 -65.835938 75.289062 -70.628906 72.65625 -73.609375 C 70.019531 -76.597656 65.925781 -78.09375 60.375 -78.09375 C 53.582031 -78.09375 48.195312 -75.828125 44.21875 -71.296875 C 40.238281 -66.765625 38.25 -59.703125 38.25 -50.109375 L 38.25 0 Z M 13.953125 0 "/></g></g></g><g fill="#000000" fill-opacity="1"><g transform="translate(77.103479, 304.001335)"><g><path d="M 13.953125 39.21875 L 13.953125 -96.78125 L 38.25 -96.78125 L 38.25 -84.140625 L 40.09375 -83.796875 C 42.96875 -88.710938 46.800781 -92.410156 51.59375 -94.890625 C 56.394531 -97.378906 62.007812 -98.625 68.4375 -98.625 C 76.21875 -98.625 83.019531 -96.78125 88.84375 -93.09375 C 94.664062 -89.40625 99.195312 -83.800781 102.4375 -76.28125 C 105.6875 -68.769531 107.3125 -59.457031 107.3125 -48.34375 C 107.3125 -37.289062 105.597656 -28.019531 102.171875 -20.53125 C 98.753906 -13.039062 94.003906 -7.4375 87.921875 -3.71875 C 81.835938 -0.0078125 74.816406 1.84375 66.859375 1.84375 C 60.835938 1.84375 55.628906 0.832031 51.234375 -1.1875 C 46.847656 -3.207031 43.132812 -6.351562 40.09375 -10.625 L 38.25 -10.265625 L 38.25 39.21875 Z M 60.109375 -18.78125 C 67.359375 -18.78125 72.851562 -21.148438 76.59375 -25.890625 C 80.34375 -30.628906 82.21875 -38.113281 82.21875 -48.34375 C 82.21875 -58.582031 80.34375 -66.082031 76.59375 -70.84375 C 72.851562 -75.613281 67.359375 -78 60.109375 -78 C 53.316406 -78 47.929688 -75.539062 43.953125 -70.625 C 39.984375 -65.71875 38 -58.289062 38 -48.34375 C 38 -38.457031 39.984375 -31.054688 43.953125 -26.140625 C 47.929688 -21.234375 53.316406 -18.78125 60.109375 -18.78125 Z M 60.109375 -18.78125 "/></g></g></g><g fill="#000000" fill-opacity="1"><g transform="translate(183.121019, 304.001335)"><g><path d="M 95.640625 -42.90625 L 33.4375 -42.90625 C 34.132812 -34.476562 36.53125 -28.347656 40.625 -24.515625 C 44.71875 -20.691406 50.304688 -18.78125 57.390625 -18.78125 C 62.941406 -18.78125 67.441406 -19.816406 70.890625 -21.890625 C 74.347656 -23.960938 77.128906 -27.109375 79.234375 -31.328125 L 81.078125 -31.328125 L 97.21875 -20.96875 C 94.0625 -14.1875 89.296875 -8.6875 82.921875 -4.46875 C 76.546875 -0.257812 68.035156 1.84375 57.390625 1.84375 C 47.378906 1.84375 38.734375 -0.0546875 31.453125 -3.859375 C 24.171875 -7.660156 18.554688 -13.316406 14.609375 -20.828125 C 10.660156 -28.347656 8.6875 -37.519531 8.6875 -48.34375 C 8.6875 -59.34375 10.757812 -68.613281 14.90625 -76.15625 C 19.0625 -83.707031 24.675781 -89.335938 31.75 -93.046875 C 38.832031 -96.765625 46.789062 -98.625 55.625 -98.625 C 69.3125 -98.625 79.796875 -94.992188 87.078125 -87.734375 C 94.367188 -80.484375 98.015625 -69.84375 98.015625 -55.8125 C 98.015625 -50.71875 97.835938 -46.765625 97.484375 -43.953125 Z M 74.765625 -58.609375 C 74.523438 -65.984375 72.8125 -71.351562 69.625 -74.71875 C 66.4375 -78.082031 61.769531 -79.765625 55.625 -79.765625 C 43.34375 -79.765625 36.117188 -72.710938 33.953125 -58.609375 Z M 74.765625 -58.609375 "/></g></g></g><g fill="#000000" fill-opacity="1"><g transform="translate(180.359233, 186.623268)"><g><path d="M 56.25 1.84375 C 46.769531 1.84375 38.445312 -0.0976562 31.28125 -3.984375 C 24.113281 -7.878906 18.554688 -13.582031 14.609375 -21.09375 C 10.660156 -28.613281 8.6875 -37.695312 8.6875 -48.34375 C 8.6875 -58.988281 10.660156 -68.082031 14.609375 -75.625 C 18.554688 -83.175781 24.113281 -88.894531 31.28125 -92.78125 C 38.445312 -96.675781 46.769531 -98.625 56.25 -98.625 C 65.71875 -98.625 74.035156 -96.675781 81.203125 -92.78125 C 88.367188 -88.894531 93.941406 -83.175781 97.921875 -75.625 C 101.898438 -68.082031 103.890625 -58.988281 103.890625 -48.34375 C 103.890625 -37.695312 101.898438 -28.613281 97.921875 -21.09375 C 93.941406 -13.582031 88.367188 -7.878906 81.203125 -3.984375 C 74.035156 -0.0976562 65.71875 1.84375 56.25 1.84375 Z M 56.25 -18.78125 C 71.28125 -18.78125 78.796875 -28.632812 78.796875 -48.34375 C 78.796875 -58.582031 76.863281 -66.082031 73 -70.84375 C 69.144531 -75.613281 63.5625 -78 56.25 -78 C 41.207031 -78 33.6875 -68.113281 33.6875 -48.34375 C 33.6875 -28.632812 41.207031 -18.78125 56.25 -18.78125 Z M 56.25 -18.78125 "/></g></g></g><g clip-path="url(#9e21702761)"><path fill="#ffffff" d="M 180.378906 75.632812 L 292.855469 75.632812 L 292.855469 134.636719 L 180.378906 134.636719 Z M 180.378906 75.632812 " fill-opacity="1" fill-rule="nonzero"/></g><g clip-path="url(#951494769c)"><g clip-path="url(#1acba5fe61)"><path fill="#648dcb" d="M 188.410156 99.429688 L 217.445312 99.429688 L 217.445312 128.464844 L 188.410156 128.464844 Z M 188.410156 99.429688 " fill-opacity="1" fill-rule="nonzero"/></g></g><g clip-path="url(#4dde9d0231)"><g clip-path="url(#30a4639e93)"><path fill="#648dcb" d="M 255.226562 99.429688 L 284.261719 99.429688 L 284.261719 128.464844 L 255.226562 128.464844 Z M 255.226562 99.429688 " fill-opacity="1" fill-rule="nonzero"/></g></g></svg>